<svg width="48" height="47" viewBox="0 0 48 47" fill="none" xmlns="http://www.w3.org/2000/svg">
<g clip-path="url(#clip0_2_101)">
<path fill-rule="evenodd" clip-rule="evenodd" d="M24.3788 47C37.3575 47 47.8788 36.4787 47.8788 23.5C47.8788 10.5213 37.3575 0 24.3788 0C11.4001 0 0.878784 10.5213 0.878784 23.5C0.878784 36.4787 11.4001 47 24.3788 47Z" fill="white"/>
<path fill-rule="evenodd" clip-rule="evenodd" d="M28.6269 15.5586V17.3663H35.8576V15.5586H28.6269ZM10.3692 14.6177L18.7133 14.7101C18.7133 14.7101 23.2955 14.4684 23.927 18.1065C24.5586 21.7446 21.6221 22.6041 21.6221 22.6041C21.6221 22.6041 25.2486 23.4278 24.7437 27.6772C24.2387 31.9266 19.2866 31.9705 19.2866 31.9705H10.3692V14.6177ZM14.1653 21.524L17.6183 21.5455C17.8393 21.5455 18.4203 21.5263 18.8982 21.4134C19.1027 21.3651 19.5008 21.2278 19.7757 20.9799C19.8898 20.877 20.1 20.5872 20.2213 20.2436C20.3393 19.9097 20.3699 19.5226 20.3699 19.3741C20.3699 19.1022 20.3204 18.8505 20.2213 18.6191C20.1223 18.3876 19.9737 18.1873 19.7757 18.0183C19.5776 17.8493 19.3257 17.7171 19.0199 17.6215C18.7142 17.526 18.3503 17.4782 17.9283 17.4782L14.1653 17.4567V21.524ZM14.1653 28.8213L17.9379 28.8451C18.1793 28.8451 18.8141 28.8238 19.3362 28.6991C19.5597 28.6457 19.9947 28.4939 20.2949 28.22C20.4196 28.1063 20.6493 27.7859 20.7819 27.4061C20.9107 27.0371 20.9442 26.6093 20.9442 26.4451C20.9442 26.1446 20.8901 25.8665 20.7819 25.6106C20.6737 25.3548 20.5114 25.1335 20.2949 24.9467C20.0785 24.7599 19.8033 24.6137 19.4693 24.5081C19.1352 24.4025 18.7377 24.3497 18.2766 24.3497L14.1653 24.3259V28.8213ZM29.4242 26.51C29.4296 26.6111 29.4242 29.1034 31.4662 29.6758C33.8369 30.3403 34.8935 28.3712 34.9755 28.143H38.0807C38.0004 28.517 36.7381 33.6087 29.8704 31.9492C25.6547 30.9305 25.8715 25.939 25.8715 25.5115C25.8715 25.1178 25.8884 23.0237 27.5872 21.0926C29.2859 19.1615 31.7045 19.1615 32.1943 19.1615C32.6841 19.1615 35.2029 19.1615 36.7381 20.8657C38.7244 23.0706 38.3304 26.6037 38.3304 26.6037L29.4242 26.51ZM34.8634 24.3259C34.8393 23.9352 34.7611 23.5752 34.6287 23.2459C34.4963 22.9165 34.3137 22.6312 34.081 22.3899C33.8482 22.1486 33.5694 21.959 33.2443 21.8212C32.9193 21.6833 32.5562 21.6144 32.1549 21.6144C31.7938 21.6144 31.4588 21.6871 31.1498 21.8327C30.8408 21.9782 30.57 22.1754 30.3372 22.4244C30.1045 22.6733 29.9179 22.9605 29.7775 23.2861C29.6371 23.6116 29.5548 23.9582 29.5307 24.3259H34.8634Z" fill="#488BE2"/>
</g>
<defs>
<clipPath id="clip0_2_101">
<rect width="47" height="47" fill="white" transform="translate(0.878784)"/>
</clipPath>
</defs>
</svg>
