<svg width="48" height="47" viewBox="0 0 48 47" fill="none" xmlns="http://www.w3.org/2000/svg">
<g clip-path="url(#clip0_2_110)">
<path d="M24.197 0C11.2176 0 0.69696 10.5207 0.69696 23.5C0.69696 36.4793 11.2191 47 24.197 47C37.1763 47 47.697 36.4793 47.697 23.5C47.697 10.5207 37.1763 0 24.197 0ZM27.2329 27.8475C27.722 28.272 28.1024 29.7686 28.1024 30.456V36.5425H24.6288H21.1508C21.1508 36.5425 21.1611 34.4789 21.1508 33.0645C16.392 34.0882 15.0643 30.456 15.0643 30.456C14.1948 28.717 13.3253 27.8475 13.3253 27.8475C11.5863 26.815 13.3253 26.978 13.3253 26.978C15.0643 26.978 15.9338 28.717 15.9338 28.717C17.4598 31.3079 20.1755 30.8908 21.1508 30.456C21.1508 29.5865 21.5312 28.272 22.0203 27.8475C18.2221 27.4201 15.0613 25.239 15.0613 20.8915C15.0613 16.544 15.9338 15.6745 16.8033 14.805C16.627 14.3761 15.9 12.7928 16.8297 10.4575C16.8297 10.4575 18.5379 10.4575 20.2769 13.066C21.139 12.2038 23.7549 12.1965 24.6258 12.1965C25.4939 12.1965 28.1112 12.2038 28.9719 13.066C30.7109 10.4575 32.4234 10.4575 32.4234 10.4575C33.3531 12.7928 32.6261 14.3761 32.4499 14.805C33.3194 15.6745 34.1889 16.544 34.1889 20.8915C34.1903 25.239 31.0325 27.4201 27.2329 27.8475Z" fill="white"/>
<g clip-path="url(#clip1_2_110)">
<path fill-rule="evenodd" clip-rule="evenodd" d="M30.606 -361.758C231.837 -361.758 395.212 -198.383 395.212 2.84848C395.212 204.08 231.837 367.455 30.606 367.455C-170.625 367.455 -334 204.08 -334 2.84848C-334 -198.383 -170.625 -361.758 30.606 -361.758ZM-83.386 207.756V-76.9803H-178.047V207.756H-83.386ZM257.891 207.756V44.472C257.891 -42.9893 211.194 -83.6757 148.924 -83.6757C98.7119 -83.6757 76.2202 -56.061 63.6271 -36.6657V-76.9803H-31.0095C-29.7548 -50.2658 -31.0095 207.756 -31.0095 207.756H63.6257V48.739C63.6257 40.2277 64.2381 31.7193 66.7462 25.6364C73.5754 8.63803 89.1595 -8.97131 115.306 -8.97131C149.536 -8.97131 163.25 17.1493 163.25 55.4102V207.756H257.891ZM-130.077 -214.277C-162.464 -214.277 -183.624 -192.985 -183.624 -165.077C-183.624 -137.757 -163.108 -115.878 -131.33 -115.878H-130.719C-97.7125 -115.878 -77.1678 -137.757 -77.1678 -165.077C-77.7802 -192.985 -97.7111 -214.277 -130.077 -214.277Z" fill="black"/>
</g>
</g>
<defs>
<clipPath id="clip0_2_110">
<rect width="47" height="47" fill="white" transform="translate(0.69696)"/>
</clipPath>
<clipPath id="clip1_2_110">
<rect width="729.212" height="729.212" fill="white" transform="translate(-334 -361.758)"/>
</clipPath>
</defs>
</svg>
