<svg width="48" height="47" viewBox="0 0 48 47" fill="none" xmlns="http://www.w3.org/2000/svg">
<g clip-path="url(#clip0_2_193)">
<path fill-rule="evenodd" clip-rule="evenodd" d="M23.9849 0C36.9548 0 47.4849 10.53 47.4849 23.5C47.4849 36.47 36.9548 47 23.9849 47C11.0149 47 0.484863 36.47 0.484863 23.5C0.484863 10.53 11.0149 0 23.9849 0ZM16.6377 36.7069V18.3548H10.5365V36.7069H16.6377ZM38.6341 36.7069V26.1828C38.6341 20.5456 35.6243 17.9232 31.6108 17.9232C28.3745 17.9232 26.9248 19.7031 26.1132 20.9532V18.3548H20.0135C20.0944 20.0766 20.0135 36.7069 20.0135 36.7069H26.1131V26.4578C26.1131 25.9092 26.1526 25.3608 26.3142 24.9688C26.7544 23.8732 27.7588 22.7382 29.444 22.7382C31.6503 22.7382 32.5342 24.4217 32.5342 26.8878V36.7069H38.6341ZM13.6283 9.50557C11.5409 9.50557 10.1771 10.8779 10.1771 12.6767C10.1771 14.4375 11.4994 15.8477 13.5476 15.8477H13.5869C15.7143 15.8477 17.0385 14.4375 17.0385 12.6767C16.999 10.8779 15.7144 9.50557 13.6283 9.50557Z" fill="white"/>
</g>
<defs>
<clipPath id="clip0_2_193">
<rect width="47" height="47" fill="white" transform="translate(0.484863)"/>
</clipPath>
</defs>
</svg>
