<?xml version="1.0" encoding="utf-8"?>
<!-- Generator: Adobe Illustrator 27.0.0, SVG Export Plug-In . SVG Version: 6.00 Build 0)  -->
<svg version="1.1" id="Capa_1" xmlns="http://www.w3.org/2000/svg" xmlns:xlink="http://www.w3.org/1999/xlink" x="0px" y="0px"
	 viewBox="0 0 48 47" style="enable-background:new 0 0 48 47;" xml:space="preserve">
<style type="text/css">
	.st0{fill:#FFFFFF;}
</style>
<g id="Layer_1">
	<g>
		<polygon class="st0" points="32.9,16.5 15,16.5 24,22.9 		"/>
		<path class="st0" d="M23.3,25.2l-10.8-7.7v14.6h22.8V17.5l-10.8,7.7C24.3,25.5,23.8,25.6,23.3,25.2z"/>
		<path class="st0" d="M24,0C11,0,0.5,10.5,0.5,23.5S11,47,24,47s23.5-10.5,23.5-23.5S37,0,24,0z M37.7,33.3
			c-0.1,0.6-0.6,1.1-1.2,1.1h-25c-0.6,0-1.2-0.5-1.2-1.2c0,0,0-17.9,0-18.1c0.1-0.5,0.6-1,1.1-1h25.1c0.6,0,1.2,0.5,1.2,1.2V33.3z"
			/>
	</g>
</g>
</svg>
