<svg width="48" height="47" viewBox="0 0 48 47" fill="none" xmlns="http://www.w3.org/2000/svg">
<path d="M24.0161 0C11.0369 0 0.515137 10.5237 0.515137 23.501C0.515137 36.4802 11.0369 47 24.0161 47C36.9953 47 47.5151 36.4802 47.5151 23.501C47.5151 10.5237 36.9943 0 24.0161 0ZM35.8539 18.7626C35.8663 19.0164 35.8711 19.2713 35.8711 19.5289C35.8711 27.3556 29.914 36.379 19.021 36.379C15.677 36.379 12.5629 35.3989 9.94224 33.7192C10.4061 33.7736 10.8766 33.8013 11.3547 33.8013C14.1299 33.8013 16.6838 32.8546 18.7099 31.2665C16.1188 31.2179 13.9324 29.5048 13.1785 27.1523C13.5392 27.2229 13.9104 27.2582 14.2922 27.2582C14.8323 27.2582 15.3553 27.1876 15.8526 27.0511C13.1422 26.5072 11.1008 24.1117 11.1008 21.2449C11.1008 21.2191 11.1008 21.1943 11.1018 21.1685C11.8996 21.6123 12.8129 21.8786 13.7845 21.91C12.1945 20.8459 11.1495 19.0355 11.1495 16.9799C11.1495 15.8948 11.4415 14.8765 11.9512 14.0023C14.8724 17.5849 19.2367 19.9431 24.1592 20.1894C24.0581 19.757 24.0056 19.3037 24.0056 18.8399C24.0056 15.5703 26.6568 12.9181 29.9283 12.9181C31.6318 12.9181 33.1702 13.6377 34.2506 14.7877C35.6 14.5234 36.8674 14.029 38.0117 13.3505C37.5679 14.7343 36.6298 15.8948 35.4063 16.6267C36.6059 16.4836 37.7473 16.1648 38.8086 15.6943C38.0165 16.8844 37.0115 17.9275 35.8539 18.7626Z" fill="white"/>
</svg>
